<svg xmlns="http://www.w3.org/2000/svg" width="75.335" height="25" viewBox="0 0 75.335 25">
  <g id="cf-logo-v-dark-gray" transform="translate(-78 -77.9)">
    <path id="Path_9" data-name="Path 9" d="M785.139,260.979a.635.635,0,0,1-.639-.639.639.639,0,0,1,1.279,0,.649.649,0,0,1-.639.639m0-1.153a.514.514,0,1,0,.514.514.515.515,0,0,0-.514-.514m.325.849h-.147l-.126-.241h-.168v.241h-.136v-.7h.335a.223.223,0,0,1,.241.231.218.218,0,0,1-.147.21Zm-.252-.367a.1.1,0,0,0,.1-.1c0-.084-.042-.1-.1-.1H785v.21Z" transform="translate(-632.443 -162.743)" fill="#a3acbe"/>
    <path id="Path_10" data-name="Path 10" d="M155.1,259.1h1.635v4.455h2.841v1.426H155.1Z" transform="translate(-69.018 -162.206)" fill="#a3acbe"/>
    <path id="Path_11" data-name="Path 11" d="M213.9,260.982v-.021a3.085,3.085,0,0,1,3.176-3.061,3.05,3.05,0,0,1,3.155,3.04v.021a3.085,3.085,0,0,1-3.176,3.061,3.05,3.05,0,0,1-3.155-3.04m4.675,0v-.021a1.52,1.52,0,0,0-1.509-1.583,1.5,1.5,0,0,0-1.488,1.572v.021a1.518,1.518,0,0,0,1.5,1.583,1.5,1.5,0,0,0,1.5-1.572" transform="translate(-121.655 -161.132)" fill="#a3acbe"/>
    <path id="Path_12" data-name="Path 12" d="M293.4,262.4v-3.3h1.656v3.27c0,.849.43,1.247,1.08,1.247s1.08-.388,1.08-1.205V259.1h1.656v3.26a2.454,2.454,0,0,1-2.757,2.725A2.421,2.421,0,0,1,293.4,262.4" transform="translate(-192.821 -162.206)" fill="#a3acbe"/>
    <path id="Path_13" data-name="Path 13" d="M369.4,259.1h2.264c2.1,0,3.323,1.205,3.323,2.9v.021c0,1.7-1.237,2.956-3.354,2.956H369.4V259.1Zm2.3,4.434a1.443,1.443,0,0,0,1.625-1.488v-.021a1.449,1.449,0,0,0-1.625-1.488h-.66v2.987h.66Z" transform="translate(-260.855 -162.206)" fill="#a3acbe"/>
    <path id="Path_14" data-name="Path 14" d="M445.3,259.1h4.706v1.426h-3.082v1.006h2.788v1.352h-2.788v2.1H445.3Z" transform="translate(-328.799 -162.206)" fill="#a3acbe"/>
    <path id="Path_15" data-name="Path 15" d="M511.8,259.1h1.625v4.455h2.851v1.426H511.8Z" transform="translate(-388.328 -162.206)" fill="#a3acbe"/>
    <path id="Path_16" data-name="Path 16" d="M573.795,258.7h1.572l2.505,5.922h-1.751l-.43-1.048h-2.264l-.419,1.048H571.3Zm1.436,3.606-.65-1.667-.66,1.667Z" transform="translate(-441.591 -161.848)" fill="#a3acbe"/>
    <path id="Path_17" data-name="Path 17" d="M654,259.1h2.778a2.556,2.556,0,0,1,1.918.639,1.816,1.816,0,0,1,.524,1.373v.021a1.853,1.853,0,0,1-1.205,1.8l1.4,2.055h-1.887l-1.184-1.782h-.713v1.782H654V259.1Zm2.7,2.82c.556,0,.87-.273.87-.692v-.021c0-.461-.335-.692-.88-.692h-1.069v1.4Z" transform="translate(-515.623 -162.206)" fill="#a3acbe"/>
    <path id="Path_18" data-name="Path 18" d="M726.2,259.1h4.727v1.384h-3.113v.891h2.82v1.289h-2.82v.933h3.155v1.384H726.2Z" transform="translate(-580.255 -162.206)" fill="#a3acbe"/>
    <path id="Path_19" data-name="Path 19" d="M82.518,261.763a1.446,1.446,0,0,1-1.342.881,1.524,1.524,0,0,1-1.5-1.583v-.021a1.5,1.5,0,0,1,1.488-1.572,1.461,1.461,0,0,1,1.394.975h1.719a3.184,3.184,0,0,0-6.279.618v.021a3.05,3.05,0,0,0,3.155,3.04,3.092,3.092,0,0,0,3.082-2.348l-1.719-.01Z" transform="translate(0 -161.222)" fill="#a3acbe"/>
    <g id="Group_44" data-name="Group 44" transform="translate(115.956 77.9)">
      <path id="Path_20" data-name="Path 20" d="M550.769,144.714l-4.5-2.579-.776-.335-18.4.126v9.34h23.669Z" transform="translate(-517.98 -135.102)" fill="#a3acbe"/>
      <path id="Path_21" data-name="Path 21" d="M464.7,93.2a2.231,2.231,0,0,0-.231-1.96,1.99,1.99,0,0,0-1.583-.776l-12.9-.168a.239.239,0,0,1-.2-.1.289.289,0,0,1-.031-.231.354.354,0,0,1,.3-.231l13.019-.168a4.661,4.661,0,0,0,3.805-2.851l.744-1.939a.416.416,0,0,0,.021-.252,8.477,8.477,0,0,0-16.3-.87,3.811,3.811,0,0,0-6.08,2.662,4,4,0,0,0,.094,1.331,5.415,5.415,0,0,0-5.262,5.419,6.6,6.6,0,0,0,.052.786.258.258,0,0,0,.252.22h23.815a.324.324,0,0,0,.3-.231Z" transform="translate(-440.1 -77.9)" fill="#a3acbe"/>
      <path id="Path_22" data-name="Path 22" d="M684.536,144.8c-.115,0-.241,0-.356.01a.212.212,0,0,0-.189.147l-.5,1.751a2.231,2.231,0,0,0,.231,1.96,1.99,1.99,0,0,0,1.583.776l2.746.168a.239.239,0,0,1,.2.1.3.3,0,0,1,.031.231.354.354,0,0,1-.3.231l-2.862.168a4.646,4.646,0,0,0-3.805,2.851l-.21.535a.151.151,0,0,0,.147.21h9.832a.258.258,0,0,0,.252-.189,7.164,7.164,0,0,0,.262-1.908,7.062,7.062,0,0,0-7.055-7.044" transform="translate(-655.826 -137.787)" fill="#a3acbe"/>
    </g>
  </g>
</svg>
