<svg xmlns="http://www.w3.org/2000/svg" width="70" height="67.442" viewBox="0 0 70 67.442">
  <g id="ENSLogo.c0462c6d" transform="translate(0 0.01)">
    <path id="Path_4" data-name="Path 4" d="M7.5,441v-8.154a.042.042,0,0,1,.042-.042h5.18a.042.042,0,0,1,.042.042v1.039a.042.042,0,0,1-.042.042H8.75v2.407h3.382a.042.042,0,0,1,.042.042V437.4a.042.042,0,0,1-.042.042H8.75v2.476h3.972a.042.042,0,0,1,.042.042V441a.042.042,0,0,1-.042.042H7.542A.042.042,0,0,1,7.5,441Zm11.382-7.073V441a.042.042,0,0,1-.042.042H17.677a.042.042,0,0,1-.042-.042v-7.073H15.406a.042.042,0,0,1-.042-.042v-1.039a.042.042,0,0,1,.042-.042h5.7a.042.042,0,0,1,.042.042v1.039a.042.042,0,0,1-.042.042ZM33.652,441v-8.154a.042.042,0,0,1,.042-.042h5.18a.042.042,0,0,1,.042.042v1.039a.042.042,0,0,1-.042.042H34.9v2.407h3.383a.042.042,0,0,1,.042.042V437.4a.042.042,0,0,1-.042.042H34.9v2.476h3.973a.042.042,0,0,1,.042.042V441a.042.042,0,0,1-.042.042H33.693a.042.042,0,0,1-.042-.043Zm-5.024,0v-3.557H25.295V441a.042.042,0,0,1-.042.042H24.087a.042.042,0,0,1-.042-.042v-8.154a.042.042,0,0,1,.042-.042h1.166a.042.042,0,0,1,.042.042v3.476h3.333v-3.476a.042.042,0,0,1,.042-.042h1.166a.042.042,0,0,1,.042.042V441a.042.042,0,0,1-.042.042H28.669a.042.042,0,0,1-.042-.042Zm35.007.215a7.532,7.532,0,0,1-2.928-.649.038.038,0,0,1-.021-.037v-7.683a.042.042,0,0,1,.042-.042h1.166a.042.042,0,0,1,.042.042v6.762a4.271,4.271,0,0,0,1.7.3,4.352,4.352,0,0,0,1.71-.3v-6.762a.042.042,0,0,1,.042-.042h1.166a.042.042,0,0,1,.042.042v7.685a.038.038,0,0,1-.023.037A7.618,7.618,0,0,1,63.634,441.215ZM76.252,441v-5.466l-1.885,3.991a.042.042,0,0,1-.038.024h-.872a.042.042,0,0,1-.037-.024l-1.932-3.991V441a.042.042,0,0,1-.042.042H70.28a.042.042,0,0,1-.042-.042v-8.154a.042.042,0,0,1,.042-.042h1.182a.042.042,0,0,1,.038.024l2.395,5.1,2.345-5.105a.042.042,0,0,1,.038-.024h1.181a.042.042,0,0,1,.042.042V441a.042.042,0,0,1-.042.042H76.292A.042.042,0,0,1,76.252,441Zm-28.843.037h1.3a.042.042,0,0,0,.035-.064l-2.287-3.478h1.375a.039.039,0,0,0,.035-.018,4.39,4.39,0,0,0,.665-2.269,4.837,4.837,0,0,0-.714-2.389.04.04,0,0,0-.035-.019H42.47a.042.042,0,0,0-.042.042V441a.042.042,0,0,0,.042.042h1.166a.042.042,0,0,0,.042-.042v-7.069h3.267a2.107,2.107,0,0,1,.369,1.3,2.2,2.2,0,0,1-.332,1.284h-2.42a.042.042,0,0,0-.035.064l2.847,4.452a.042.042,0,0,0,.035.015Zm10.031-1.118H53.467v-2.476h3.383a.042.042,0,0,0,.042-.042v-1.027a.042.042,0,0,0-.042-.042H53.467v-2.407H57.44a.042.042,0,0,0,.042-.042v-1.039a.042.042,0,0,0-.042-.042H52.258a.042.042,0,0,0-.042.042V441a.042.042,0,0,0,.042.042h5.18A.042.042,0,0,0,57.48,441v-1.033a.042.042,0,0,0-.04-.046Zm-42.066,10.72h-.792a.039.039,0,0,1-.033-.018l-2.262-3.452V450.6a.039.039,0,0,1-.039.039h-.893a.039.039,0,0,1-.039-.039V445.29a.039.039,0,0,1,.039-.039h.8a.039.039,0,0,1,.033.018l2.262,3.444v-3.421a.039.039,0,0,1,.039-.039h.884a.039.039,0,0,1,.039.039V450.6A.039.039,0,0,1,15.374,450.639Zm6.248,0h-.943a.039.039,0,0,1-.037-.026l-.346-1.021H18.357l-.35,1.021a.039.039,0,0,1-.037.026h-.943a.039.039,0,0,1-.037-.052l1.946-5.309a.039.039,0,0,1,.037-.026h.7a.039.039,0,0,1,.037.026l1.946,5.309a.039.039,0,0,1-.037.052Zm-2.976-1.893h1.363l-.665-1.966Zm9.322,1.893H27.08a.039.039,0,0,1-.039-.039v-3.151l-1.051,2.222a.039.039,0,0,1-.036.023H25.31a.039.039,0,0,1-.036-.023l-1.081-2.231V450.6a.039.039,0,0,1-.039.039h-.883a.039.039,0,0,1-.039-.039v-5.309a.039.039,0,0,1,.039-.039h.867a.039.039,0,0,1,.036.023l1.457,3.1,1.428-3.1a.039.039,0,0,1,.036-.023h.868a.039.039,0,0,1,.039.039V450.6A.039.039,0,0,1,27.968,450.639Zm5.716,0H30.258a.039.039,0,0,1-.039-.039v-5.309a.039.039,0,0,1,.039-.039h3.426a.039.039,0,0,1,.039.039v.8a.039.039,0,0,1-.039.039h-2.5v1.352h2.129a.039.039,0,0,1,.039.039v.8a.039.039,0,0,1-.039.039H31.181v1.4h2.5a.039.039,0,0,1,.039.039v.8a.039.039,0,0,1-.036.039Zm14.4,0H44.661a.039.039,0,0,1-.039-.039v-5.309a.039.039,0,0,1,.039-.039h3.426a.039.039,0,0,1,.039.039v.8a.039.039,0,0,1-.039.039h-2.5v1.352h2.129a.039.039,0,0,1,.039.039v.8a.039.039,0,0,1-.039.039H45.583v1.4h2.5a.039.039,0,0,1,.039.039v.8a.039.039,0,0,1-.036.039Zm9.871,0h-.682a.039.039,0,0,1-.037-.027L55.494,445.3a.039.039,0,0,1,.037-.051h.919a.039.039,0,0,1,.037.027l1.13,3.571,1.13-3.571a.039.039,0,0,1,.037-.027h.933a.039.039,0,0,1,.037.051l-1.759,5.309A.039.039,0,0,1,57.958,450.639Zm4.278,0h-.884a.039.039,0,0,1-.039-.039v-5.309a.039.039,0,0,1,.039-.039h.884a.039.039,0,0,1,.039.039V450.6A.039.039,0,0,1,62.236,450.639Zm11.147,0H69.953a.039.039,0,0,1-.039-.039v-5.309a.039.039,0,0,1,.039-.039h3.429a.039.039,0,0,1,.039.039v.8a.039.039,0,0,1-.039.039h-2.5v1.352h2.129a.039.039,0,0,1,.039.039v.8a.039.039,0,0,1-.039.039H70.877v1.4h2.5a.039.039,0,0,1,.039.039v.8A.039.039,0,0,1,73.383,450.639Zm-5.517.008H64.822a.036.036,0,0,1-.036-.023,7.328,7.328,0,0,1-.442-2.685,7.191,7.191,0,0,1,.442-2.673.036.036,0,0,1,.036-.021h3.044a.039.039,0,0,1,.039.039v.821a.039.039,0,0,1-.039.039H65.472a7.418,7.418,0,0,0-.183,1.8,7.606,7.606,0,0,0,.188,1.807H67.87a.039.039,0,0,1,.039.039v.821a.039.039,0,0,1-.044.039Zm-13.321,0h-.977a.039.039,0,0,1-.033-.018l-1.912-2.989a.039.039,0,0,1,.033-.061h1.372a1.364,1.364,0,0,0,.183-.739,1.288,1.288,0,0,0-.2-.745H51.071v4.512a.039.039,0,0,1-.039.039h-.883a.039.039,0,0,1-.039-.039v-5.329a.039.039,0,0,1,.039-.039h3.523l.011.015a3.214,3.214,0,0,1,.476,1.58,3.165,3.165,0,0,1-.444,1.547l-.01.016h-.638Zm-14.025.15a7.092,7.092,0,0,1-1.859-.274.037.037,0,0,1-.026-.037v-.946a.039.039,0,0,1,.039-.039h.912v.3a3.69,3.69,0,0,0,1.857,0v-1.1l-2.782-.975a.039.039,0,0,1-.026-.037v-2.247a.037.037,0,0,1,.026-.037,7,7,0,0,1,1.851-.274,7.086,7.086,0,0,1,1.858.274.037.037,0,0,1,.026.037v.952a.039.039,0,0,1-.039.039h-.912v-.3a3.69,3.69,0,0,0-1.857,0v1.03l2.778.974a.039.039,0,0,1,.026.037v2.316a.037.037,0,0,1-.026.037,7,7,0,0,1-1.846.273Z" transform="translate(-7.5 -383.365)" fill="#a3acbe"/>
    <path id="Path_5" data-name="Path 5" d="M168.016,35.795c.451.962,1.563,2.857,1.563,2.857L182.434,17.4l-12.543,8.761a5.486,5.486,0,0,0-1.785,1.963A9.129,9.129,0,0,0,168.016,35.795Z" transform="translate(-148.198 -17.41)" fill="#a3acbe"/>
    <path id="Path_6" data-name="Path 6" d="M135.376,144.065a13.87,13.87,0,0,0,5.435,10.079l13.467,9.382s-8.415-12.133-15.52-24.206a12.326,12.326,0,0,1-1.428-4.116,6.59,6.59,0,0,1,.015-1.975c-.184.342-.519,1.047-.519,1.047a16,16,0,0,0-1.456,4.654A29.315,29.315,0,0,0,135.376,144.065Z" transform="translate(-120.057 -119.453)" fill="#a3acbe"/>
    <path id="Path_7" data-name="Path 7" d="M321.548,212.087c-.451-.962-1.563-2.857-1.563-2.857L307.13,230.482l12.545-8.759a5.486,5.486,0,0,0,1.785-1.963A9.111,9.111,0,0,0,321.548,212.087Z" transform="translate(-271.465 -186.407)" fill="#a3acbe"/>
    <path id="Path_8" data-name="Path 8" d="M326.2,36.871a13.87,13.87,0,0,0-5.435-10.079L307.3,17.41s8.415,12.133,15.52,24.207a12.325,12.325,0,0,1,1.428,4.116,6.588,6.588,0,0,1-.015,1.975c.185-.342.519-1.047.519-1.047a15.994,15.994,0,0,0,1.456-4.654,29.7,29.7,0,0,0-.006-5.135Z" transform="translate(-271.615 -17.419)" fill="#a3acbe"/>
  </g>
</svg>
