<svg xmlns="http://www.w3.org/2000/svg" width="70" height="24.919" viewBox="0 0 70 24.919">
  <g id="xyzcorp-logo-non3D-darkbg" transform="translate(-223.197 -81.6)">
    <g id="XMLID_22_" transform="translate(290.117 81.6)">
      <path id="XMLID_23_" d="M318.8,83.14h0a1.54,1.54,0,0,1,3.08,0h0a1.554,1.554,0,0,1-1.54,1.54A1.509,1.509,0,0,1,318.8,83.14Zm2.87,0h0a1.287,1.287,0,0,0-1.33-1.33,1.329,1.329,0,0,0-1.33,1.33h0a1.287,1.287,0,0,0,1.33,1.33A1.329,1.329,0,0,0,321.67,83.14Zm-1.96-.84h.7c.35,0,.56.14.56.49a.466.466,0,0,1-.35.49l.42.56h-.35l-.35-.56h-.35v.56h-.28Zm.7.77c.21,0,.28-.07.28-.28a.3.3,0,0,0-.28-.28h-.35V83h.35Z" transform="translate(-318.8 -81.6)" fill="#a3acbe"/>
    </g>
    <path id="XMLID_7_" d="M307.976,105.409a1.106,1.106,0,0,0-1.12-1.12H293.7l13.51-16.8a1.584,1.584,0,0,0-1.26-2.59h-15.68a1.106,1.106,0,0,0-1.12,1.12V87a1.106,1.106,0,0,0,1.12,1.12h12.39l-13.51,16.8a1.584,1.584,0,0,0,1.26,2.59h16.449a1.106,1.106,0,0,0,1.12-1.12Z" transform="translate(-19.679 -0.99)" fill="#a3acbe"/>
    <path id="XMLID_6_" d="M225.789,85.249a1.1,1.1,0,0,0-1.54-.07l-.7.63a1.1,1.1,0,0,0-.07,1.54l7.77,8.61-7.77,8.75a1.1,1.1,0,0,0,.07,1.54l.7.63a1.1,1.1,0,0,0,1.54-.07h0c.14-.07,9.66-10.92,9.66-10.92" transform="translate(0 -0.989)" fill="#a3acbe"/>
    <path id="XMLID_5_" d="M259.889,85.249a1.1,1.1,0,0,0-1.54-.07l-.7.63a1.1,1.1,0,0,0-.07,1.54l7.77,8.61-7.77,8.75a1.1,1.1,0,0,0,.07,1.54l.7.63a1.1,1.1,0,0,0,1.54-.07h0c.14-.07,9.66-10.92,9.66-10.92" transform="translate(-10.231 -0.989)" fill="#a3acbe"/>
    <path id="XMLID_4_" d="M248.289,85.734l-.77-.63a1.085,1.085,0,0,0-1.47.14l-6.37,7.14a.938.938,0,0,0,.07,1.4l.7.77a1.1,1.1,0,0,0,1.54-.07l6.44-7.21A1.109,1.109,0,0,0,248.289,85.734Z" transform="translate(-4.86 -0.984)" fill="#a3acbe"/>
    <path id="XMLID_3_" d="M282.489,85.734l-.77-.63a1.085,1.085,0,0,0-1.47.14l-6.37,7.14a.938.938,0,0,0,.07,1.4l.7.77a1.1,1.1,0,0,0,1.54-.07l6.44-7.21A1.273,1.273,0,0,0,282.489,85.734Z" transform="translate(-15.121 -0.984)" fill="#a3acbe"/>
    <path id="XMLID_2_" d="M248.225,110.1s-.35-.35-.35-.42c-1.54-1.61-6.37-6.72-6.37-6.72a1.1,1.1,0,0,0-1.54,0l-.7.77a.935.935,0,0,0,0,1.4l6.65,7.07a1.17,1.17,0,0,0,1.54.07l.7-.63A1.042,1.042,0,0,0,248.225,110.1Z" transform="translate(-4.726 -6.315)" fill="#a3acbe"/>
  </g>
</svg>
