<svg xmlns="http://www.w3.org/2000/svg" width="15" height="17.143" viewBox="0 0 15 17.143">
  <path id="discord" d="M9.951,8.143a.877.877,0,1,1-.874-.951A.913.913,0,0,1,9.951,8.143Zm-4-.951a.955.955,0,0,0,0,1.9.913.913,0,0,0,.874-.951A.908.908,0,0,0,5.949,7.191ZM15,1.766V17.143c-2.159-1.908-1.469-1.277-3.977-3.609l.454,1.586H1.757A1.761,1.761,0,0,1,0,13.354V1.766A1.761,1.761,0,0,1,1.757,0H13.243A1.761,1.761,0,0,1,15,1.766ZM12.557,9.891a11.478,11.478,0,0,0-1.234-5,4.239,4.239,0,0,0-2.409-.9l-.12.137A5.7,5.7,0,0,1,10.929,5.22a7.283,7.283,0,0,0-6.4-.249c-.317.146-.506.249-.506.249A5.783,5.783,0,0,1,6.274,4.1l-.086-.1a4.239,4.239,0,0,0-2.409.9,11.478,11.478,0,0,0-1.234,5,3.108,3.108,0,0,0,2.614,1.3s.317-.386.574-.711a2.666,2.666,0,0,1-1.5-1.011c.126.088.334.2.351.214a6.248,6.248,0,0,0,5.349.3,4.9,4.9,0,0,0,.986-.506A2.7,2.7,0,0,1,9.369,10.5c.257.326.566.694.566.694a3.133,3.133,0,0,0,2.623-1.3Z" fill="#4d5b74"/>
</svg>
