<svg id="Group_95" data-name="Group 95" xmlns="http://www.w3.org/2000/svg" width="75" height="59.109" viewBox="0 0 75 59.109">
  <path id="Path_65" data-name="Path 65" d="M42.177,21.826V25.85H22.79V0H41.661V4.025H27.59v6.721H40.073V14.7H27.59v7.127H42.179Z" transform="translate(-19.789)" fill="#8d9dbc"/>
  <path id="Path_66" data-name="Path 66" d="M194.747,4.062H186.18V0h21.936V4.062h-8.567V25.85h-4.8Z" transform="translate(-161.667)" fill="#8d9dbc"/>
  <path id="Path_67" data-name="Path 67" d="M399.841,0V25.85h-4.8V14.771H381.672V25.85h-4.8V0h4.8V10.673h13.369V0Z" transform="translate(-327.25)" fill="#8d9dbc"/>
  <path id="Path_68" data-name="Path 68" d="M19.424,278.46l-7.016-9.823L5.465,278.46H0l9.6-13.183L.516,252.61H5.945l6.611,9.2,6.537-9.2H24.3l-9.048,12.482,9.713,13.369h-5.54Z" transform="translate(0 -219.351)" fill="#8d9dbc"/>
  <path id="Path_69" data-name="Path 69" d="M212.658,269.339v9.121h-4.8v-9.048L197.7,252.61h5.134L210.4,265.2l7.644-12.594h4.728l-10.12,16.729Z" transform="translate(-171.67 -219.351)" fill="#8d9dbc"/>
  <path id="Path_70" data-name="Path 70" d="M424.237,274.407v4.062H402.19v-3.213l15.216-18.575H402.449V252.62h21.308v3.213l-15.215,18.575Z" transform="translate(-349.237 -219.36)" fill="#8d9dbc"/>
</svg>
