<svg xmlns="http://www.w3.org/2000/svg" width="19.88" height="17.22" viewBox="0 0 19.88 17.22"><defs><style>.cls-1{fill:#58595b;}</style></defs><g id="Layer_2" data-name="Layer 2"><g id="Layer_1-2" data-name="Layer 1"><path class="cls-1" d="M19.74,9.32a9.82,9.82,0,0,0-6.59-7.93A9.94,9.94,0,0,0,10,.84c.14-.28.27-.52.44-.84A26.57,26.57,0,0,0,4.71,2.34,9.91,9.91,0,0,0,.21,12.75,4,4,0,0,0,.6,13.83a18.74,18.74,0,0,1,.33-3A4.56,4.56,0,0,1,4.49,7.08a2.54,2.54,0,0,1,3,1.27,3.61,3.61,0,0,1,.22,2.74A18.83,18.83,0,0,1,7,12.83c.21.07.27-.1.36-.2l2.06-2.38c.52-.6.52-.6,1.05,0L12.79,13c.07-.31-.1-.5-.19-.71A5.19,5.19,0,0,1,12,9.65,2.61,2.61,0,0,1,14.77,7a4.28,4.28,0,0,1,3.76,2.64,7.07,7.07,0,0,1,.55,2.11c.08.66.13,1.32.19,2.06a5.1,5.1,0,0,0,.45-1.39c0-.18,0-.39.16-.54V9.82C19.71,9.69,19.77,9.49,19.74,9.32Z"/><path class="cls-1" d="M10.1,10.46c-.15-.18-.22-.14-.35,0Q8.36,12.09,7,13.68c-.17.18-.12.24.08.32l2.67,1.11a.51.51,0,0,0,.42,0L12.84,14c.07,0,.16,0,.19-.15l-.12-.14Z"/><path class="cls-1" d="M3.67,10.26c.2.29.3.57,0,.85a.53.53,0,0,1-.75.06c-.18-.11-.17,0-.19.13a1.44,1.44,0,1,0,.9-1Z"/><path class="cls-1" d="M15.18,10.28a.6.6,0,0,1,0,.86c-.27.25-.56.17-.84,0a1.41,1.41,0,0,0,.6,1.75,1.43,1.43,0,0,0,1.78-.24,1.45,1.45,0,0,0,.16-1.79A1.39,1.39,0,0,0,15.18,10.28Z"/><path class="cls-1" d="M9.93,15.58A4.88,4.88,0,0,1,8.35,15a5.51,5.51,0,0,0-1.25-.46c0,.12.07.15.13.2.79.78,1.6,1.54,2.39,2.33.23.23.4.22.62,0,.73-.72,1.47-1.42,2.2-2.13a.53.53,0,0,0,.24-.43L11.5,15A4.83,4.83,0,0,1,9.93,15.58Z"/></g></g></svg>