<svg xmlns="http://www.w3.org/2000/svg" width="13.83" height="13.829" viewBox="0 0 13.83 13.829">
  <path id="copy-regular" d="M13.32,1.873,11.7.249A.846.846,0,0,0,11.1,0H6.756a1.7,1.7,0,0,0-1.7,1.7v6.79a1.733,1.733,0,0,0,1.721,1.7h5.092a1.7,1.7,0,0,0,1.7-1.7V2.473A.849.849,0,0,0,13.32,1.873ZM12.3,8.487a.424.424,0,0,1-.424.424H6.756a.424.424,0,0,1-.424-.424V1.7a.424.424,0,0,1,.424-.424h3.395l.024,1.27a.849.849,0,0,0,.849.849h1.249V8.487ZM7.2,11.882a.424.424,0,0,1-.424.424H1.664a.424.424,0,0,1-.424-.424l.023-6.787a.424.424,0,0,1,.424-.424H4.234V3.395H1.687a1.7,1.7,0,0,0-1.7,1.7v6.79a1.7,1.7,0,0,0,1.7,1.7H6.78a1.7,1.7,0,0,0,1.7-1.7v-.849H7.228Z" transform="translate(0.135 0.125)" fill="#4d5b74" stroke="#4d5b74" stroke-width="0.25"/>
</svg>
