<svg id="Layer_1" data-name="Layer 1" xmlns="http://www.w3.org/2000/svg" viewBox="0 0 131 16"><defs><style>.cls-1{fill:#326bd5;}</style></defs><path class="cls-1" d="M2.11,12V4.66H.78V3.55H2.11V2.68A2.84,2.84,0,0,1,2.84.58,2.71,2.71,0,0,1,4.89-.16a3.64,3.64,0,0,1,1,.13L5.81,1.13A4.92,4.92,0,0,0,5,1.06a1.42,1.42,0,0,0-1.09.41,1.66,1.66,0,0,0-.38,1.18v.9h1.8V4.66H3.56V12Z"/><path class="cls-1" d="M10.28,12.16A3.71,3.71,0,0,1,7.48,11,4.2,4.2,0,0,1,6.4,8V7.74A5,5,0,0,1,6.88,5.5,3.76,3.76,0,0,1,8.22,4a3.42,3.42,0,0,1,1.88-.56,3.16,3.16,0,0,1,2.56,1.09,4.69,4.69,0,0,1,.91,3.11v.6H7.85a3,3,0,0,0,.73,2,2.28,2.28,0,0,0,1.77.77,2.5,2.5,0,0,0,1.3-.32,3.27,3.27,0,0,0,.93-.82l.88.68A3.55,3.55,0,0,1,10.28,12.16ZM10.1,4.58a1.92,1.92,0,0,0-1.47.63A3.13,3.13,0,0,0,7.89,7h4.24V6.89a2.8,2.8,0,0,0-.6-1.71A1.81,1.81,0,0,0,10.1,4.58Z"/><path class="cls-1" d="M18.75,12.16A3.68,3.68,0,0,1,16,11a4.2,4.2,0,0,1-1.08-3V7.74a5,5,0,0,1,.48-2.24A3.76,3.76,0,0,1,16.7,4a3.41,3.41,0,0,1,1.87-.56,3.13,3.13,0,0,1,2.56,1.09,4.69,4.69,0,0,1,.92,3.11v.6H16.32a3.05,3.05,0,0,0,.73,2,2.32,2.32,0,0,0,1.78.77,2.53,2.53,0,0,0,1.3-.32,3.27,3.27,0,0,0,.93-.82l.88.68A3.55,3.55,0,0,1,18.75,12.16Zm-.18-7.58a2,2,0,0,0-1.47.63A3.13,3.13,0,0,0,16.37,7H20.6V6.89A2.8,2.8,0,0,0,20,5.18,1.81,1.81,0,0,0,18.57,4.58Z"/><path class="cls-1" d="M23.37,7.7a5,5,0,0,1,.92-3.13,3.14,3.14,0,0,1,4.77-.16V0H30.5V12H29.17l-.07-.91A3.11,3.11,0,0,1,24.29,11a5,5,0,0,1-.92-3.14Zm1.44.17a3.71,3.71,0,0,0,.6,2.25,1.91,1.91,0,0,0,1.64.81,2.12,2.12,0,0,0,2-1.23V5.81a2.15,2.15,0,0,0-2-1.19,1.91,1.91,0,0,0-1.65.82A4.07,4.07,0,0,0,24.81,7.87Z"/><path class="cls-1" d="M39.9,7.87A5,5,0,0,1,39,11a2.85,2.85,0,0,1-2.39,1.18A3,3,0,0,1,34.14,11l-.07,1H32.74V0h1.45V4.48A2.91,2.91,0,0,1,36.6,3.39,2.87,2.87,0,0,1,39,4.55a5.16,5.16,0,0,1,.88,3.19ZM38.46,7.7a3.92,3.92,0,0,0-.58-2.28,1.89,1.89,0,0,0-1.64-.8A2.12,2.12,0,0,0,34.19,6V9.6a2.17,2.17,0,0,0,2.07,1.33,1.89,1.89,0,0,0,1.62-.81A4.17,4.17,0,0,0,38.46,7.7Z"/><path class="cls-1" d="M46.94,12a3.1,3.1,0,0,1-.2-.89,3.24,3.24,0,0,1-2.41,1.05,3,3,0,0,1-2-.71,2.3,2.3,0,0,1-.8-1.79,2.38,2.38,0,0,1,1-2,4.72,4.72,0,0,1,2.83-.73h1.4V6.21A1.65,1.65,0,0,0,46.26,5a1.82,1.82,0,0,0-1.34-.45,2.11,2.11,0,0,0-1.29.4,1.15,1.15,0,0,0-.53.94H41.65a2,2,0,0,1,.45-1.22,3.05,3.05,0,0,1,1.22-.94A4.25,4.25,0,0,1,45,3.39a3.33,3.33,0,0,1,2.29.73,2.65,2.65,0,0,1,.86,2V10a4.75,4.75,0,0,0,.3,1.86V12Zm-2.4-1.1a2.61,2.61,0,0,0,1.29-.35,2.1,2.1,0,0,0,.88-.92V7.9H45.58c-1.77,0-2.66.52-2.66,1.55a1.31,1.31,0,0,0,.46,1.07A1.76,1.76,0,0,0,44.54,10.9Z"/><path class="cls-1" d="M53.81,11a2.12,2.12,0,0,0,1.36-.47,1.71,1.71,0,0,0,.64-1.17h1.36a2.56,2.56,0,0,1-.5,1.38,3.25,3.25,0,0,1-1.23,1,3.53,3.53,0,0,1-1.63.39A3.47,3.47,0,0,1,51.07,11a4.57,4.57,0,0,1-1-3.15V7.61a5.15,5.15,0,0,1,.45-2.2,3.5,3.5,0,0,1,1.3-1.49,3.77,3.77,0,0,1,2-.53,3.39,3.39,0,0,1,2.36.85,3,3,0,0,1,1,2.21H55.81a2,2,0,0,0-.62-1.34,1.93,1.93,0,0,0-1.38-.53,2,2,0,0,0-1.71.79,3.74,3.74,0,0,0-.61,2.29v.28a3.61,3.61,0,0,0,.61,2.25A2,2,0,0,0,53.81,11Z"/><path class="cls-1" d="M61.16,8.09,60.25,9v3H58.81V0h1.44V7.26L61,6.33l2.63-2.78h1.76L62.13,7.08,65.8,12H64.1Z"/><path class="cls-1" d="M79.39,8.08a5.2,5.2,0,0,1-.93,3,2.73,2.73,0,0,1-2.26,1.1,1.78,1.78,0,0,1-1.88-1.32,2.85,2.85,0,0,1-1,1,2.14,2.14,0,0,1-1.12.33,1.87,1.87,0,0,1-1.68-.91,4,4,0,0,1-.43-2.51,7.07,7.07,0,0,1,.59-2.3,4.43,4.43,0,0,1,1.22-1.59,2.56,2.56,0,0,1,1.57-.58,3.58,3.58,0,0,1,1.13.17,3.8,3.8,0,0,1,1.13.66l-.41,4.33c-.1,1.2.24,1.8,1,1.8a1.63,1.63,0,0,0,1.43-.87,4.46,4.46,0,0,0,.59-2.28,6.71,6.71,0,0,0-1.12-4.63,4.68,4.68,0,0,0-3.89-1.6,5.05,5.05,0,0,0-2.79.78,5.33,5.33,0,0,0-1.92,2.25,8.63,8.63,0,0,0-.79,3.39,8,8,0,0,0,.47,3.36,4.43,4.43,0,0,0,1.71,2.18,5,5,0,0,0,2.79.75,6.18,6.18,0,0,0,1.41-.17A4.27,4.27,0,0,0,75.42,14l.29.89a4.17,4.17,0,0,1-1.28.5,6.91,6.91,0,0,1-1.62.2,6.14,6.14,0,0,1-3.36-.88,5.39,5.39,0,0,1-2.11-2.53,8.85,8.85,0,0,1-.6-3.86,9.32,9.32,0,0,1,1-3.87,6.6,6.6,0,0,1,2.35-2.65A6.19,6.19,0,0,1,73.4.82a6.09,6.09,0,0,1,3.34.88,5.3,5.3,0,0,1,2.07,2.52A9,9,0,0,1,79.39,8.08Zm-8,.66a3,3,0,0,0,.2,1.71,1.07,1.07,0,0,0,1,.59,1.31,1.31,0,0,0,.9-.4,2.87,2.87,0,0,0,.72-1.14V9.43l.36-3.93a2,2,0,0,0-.94-.23,1.77,1.77,0,0,0-1.51.93A5.66,5.66,0,0,0,71.38,8.74Z"/><path class="cls-1" d="M84.78,12.16A3.7,3.7,0,0,1,82,11a4.2,4.2,0,0,1-1.08-3V7.74a5,5,0,0,1,.48-2.24A3.76,3.76,0,0,1,82.73,4a3.41,3.41,0,0,1,1.87-.56,3.17,3.17,0,0,1,2.57,1.09,4.69,4.69,0,0,1,.91,3.11v.6H82.35a3.05,3.05,0,0,0,.73,2,2.32,2.32,0,0,0,1.78.77,2.53,2.53,0,0,0,1.3-.32,3.27,3.27,0,0,0,.93-.82l.88.68A3.55,3.55,0,0,1,84.78,12.16ZM84.6,4.58a2,2,0,0,0-1.47.63A3.13,3.13,0,0,0,82.4,7h4.23V6.89A2.74,2.74,0,0,0,86,5.18,1.81,1.81,0,0,0,84.6,4.58Z"/><path class="cls-1" d="M91.71,1.5V3.55h1.58V4.66H91.71V9.91a1.2,1.2,0,0,0,.21.77.92.92,0,0,0,.72.25,3.61,3.61,0,0,0,.69-.09V12a4.38,4.38,0,0,1-1.11.16,1.81,1.81,0,0,1-1.46-.59,2.51,2.51,0,0,1-.49-1.66V4.66H88.73V3.55h1.54v-2Z"/><path class="cls-1" d="M96.42,4.57a3.07,3.07,0,0,1,2.5-1.18c1.79,0,2.69,1,2.71,3V12h-1.45V6.41a1.93,1.93,0,0,0-.42-1.36,1.67,1.67,0,0,0-1.27-.43A2.11,2.11,0,0,0,97.25,5a2.6,2.6,0,0,0-.83,1v6H95V0h1.44Z"/><path class="cls-1" d="M103.82,11.24a.92.92,0,0,1,.22-.62.85.85,0,0,1,.67-.25.86.86,0,0,1,.68.25.88.88,0,0,1,.23.62.85.85,0,0,1-.23.6,1,1,0,0,1-1.35,0A.89.89,0,0,1,103.82,11.24Z"/><path class="cls-1" d="M110.84,6.63l1.87-3.08h1.69l-2.77,4.18L114.49,12h-1.68l-2-3.16-2,3.16h-1.68l2.85-4.27-2.77-4.18H109Z"/><path class="cls-1" d="M118.7,9.88l2-6.33h1.54l-3.4,9.75c-.52,1.41-1.36,2.11-2.5,2.11l-.28,0-.54-.1V14.12l.39,0a1.92,1.92,0,0,0,1.15-.3,2.21,2.21,0,0,0,.68-1.08l.32-.86-3-8.36h1.58Z"/><path class="cls-1" d="M124.86,10.82h5V12H123.1V10.94l4.66-6.2h-4.59V3.55h6.4v1Z"/><path class="cls-1" d="M.31,13.56v-.78h130v.78Z"/></svg>