<svg xmlns="http://www.w3.org/2000/svg" width="15" height="12.136" viewBox="0 0 15 12.136">
  <path id="breaking-news_twitter" d="M16.5,5.032a5.26,5.26,0,0,1-1.773.477,3.4,3.4,0,0,0,1.364-1.7,6.264,6.264,0,0,1-1.977.75,2.982,2.982,0,0,0-2.25-.955A3.055,3.055,0,0,0,8.8,6.668a2.1,2.1,0,0,0,.068.682,8.986,8.986,0,0,1-6.341-3.2,2.988,2.988,0,0,0-.409,1.568A3.2,3.2,0,0,0,3.477,8.3,2.458,2.458,0,0,1,2.114,7.9v.068a3.076,3.076,0,0,0,2.455,3,3.422,3.422,0,0,1-.818.136,1.329,1.329,0,0,1-.545-.068,3.008,3.008,0,0,0,2.864,2.114,6.146,6.146,0,0,1-3.818,1.3,2.8,2.8,0,0,1-.75-.068,8.628,8.628,0,0,0,4.7,1.364,8.675,8.675,0,0,0,8.727-8.727V6.6A5.722,5.722,0,0,0,16.5,5.032Z" transform="translate(-1.5 -3.6)" fill="#4d5b74"/>
</svg>
